<?xml version="1.0" standalone="no"?><!DOCTYPE svg PUBLIC "-//W3C//DTD SVG 1.1//EN" "http://www.w3.org/Graphics/SVG/1.1/DTD/svg11.dtd"><svg t="1541239728269" class="icon" style="" viewBox="0 0 1024 1024" version="1.1" xmlns="http://www.w3.org/2000/svg" p-id="2743" xmlns:xlink="http://www.w3.org/1999/xlink" width="128" height="128"><defs><style type="text/css"></style></defs><path d="M1010.832607 639.252219c0-33.918507-11.664667-59.794851-34.477232-74.828242 13.84124-7.839549 34.229592-46.600341 34.229592-80.830957-1.378393-56.548924-56.090483-98.464569-138.696876-98.464569L652.85247 385.128451c37.505195-102.078887 30.432103-239.73506-16.594957-313.213561-28.321022-44.215014-62.33572-54.132898-85.942371-54.132898-79.482239 0-82.083483 76.576049-82.083483 102.630449 0 87.135546-12.585643 126.845966-28.260647 163.463955-12.431124 23.700795-88.515986 101.649098-166.251442 101.649098L128.0417 385.525494c-56.245002 0-97.029894 47.091528-96.93575 114.115014l37.780465 398.665769c4.563946 61.419861 34.720779 98.618065 95.221712 98.618065 0 0 30.128181 0.246617 52.694129 0.246617 11.511171 0 22.255887-0.093121 28.623921-0.246617 18.645662-0.61296 34.016745-12.552897 47.610344-22.592554 9.614985-7.074116 17.23964-13.231349 24.158213-13.231349 3.092431 0 20.756743 10.136871 42.435485 19.349697 22.106484 9.339716 57.162908 17.08512 90.689489 17.08512l304.673048 0c102.139262 0 151.185304-38.271652 151.185304-102.078887 0-18.86158-4.344958-30.036084-14.814404-44.639686 40.99467-9.825786 77.365019-35.604916 77.365019-80.06143 0-16.504906-7.774057-43.017746-18.398022-50.058093C970.38336 715.581652 1010.892983 679.8171 1010.832607 639.252219L1010.832607 639.252219zM243.927033 956.756503c-18.247596 0.578168-83.705424 0-84.134189 0-23.485901 0-44.301995-22.13616-49.600675-51.867298l-37.781488-414.43901c0-31.012318 24.951275-64.999386 58.261938-64.999386l0 0.214894 143.04695 0.429789c2.447748 0 4.867868-0.308015 7.28901-0.397043l0 506.992963c-6.615675 4.621251-12.800537 9.092076-17.210987 12.339026C257.737574 949.500239 247.604796 956.325691 243.927033 956.756503L243.927033 956.756503zM911.966902 693.567265l-5.541203 0 0.51984 36.988426c4.442172 1.682315 20.822235 6.610558 20.84884 38.761815 0 34.440393-45.2506 48.28368-83.368756 48.28368l0.094144 0-0.644683 35.240619c15.524578 3.456728 21.093411 17.023722 21.064758 38.700417 0 37.902238-30.801517 65.214281-110.806665 65.214281L438.620247 956.756503c-15.089673 0-45.741787-8.789177-63.406099-17.33276-16.654308-8.049327-43.354414-23.116487-52.571333-28.105105L322.642816 418.989653c79.331813-21.980617 144.821363-90.409103 161.354921-122.009821 17.97335-41.788755 26.974351-85.479837 26.974351-181.313485 0-47.611367 17.482163-54.011124 36.09508-54.011124 16.473183 0 42.649356 18.158568 55.878658 38.854936 39.160905 61.139475 48.312332 192.858426-0.401136 291.508213l-8.385994 34.137495 279.627628-0.061398c47.611367 2.602268 95.464235 22.074761 95.464235 57.193607l-0.335644 10.992355c0.153496 0.458441-1.163499 30.432103-17.117866 43.659359-13.379729 11.113105-24.218588 11.484565-24.218588 11.484565l-0.303922 36.401048c0 0 16.137539 2.171456 24.555256 7.960299 12.674671 8.694009 18.430768 25.168216 17.757432 43.168172C968.762443 659.732669 933.550477 693.567265 911.966902 693.567265L911.966902 693.567265zM911.966902 693.567265" p-id="2744" fill="#f3961d"></path></svg>
